<svg xmlns="http://www.w3.org/2000/svg" xmlns:xlink="http://www.w3.org/1999/xlink"><symbol id="icon-arr-left" viewBox="0 0 25 44"><path d="M23 2L3 22l20 20" stroke-width="5" stroke-linejoin="round"/></symbol><symbol id="icon-arr-right" viewBox="0 0 25 44"><path d="M2 2l20 20L2 42" stroke-width="5" stroke-linejoin="round"/></symbol><symbol id="icon-menu-close" viewBox="0 0 29 29"><path transform="matrix(.7071 .7071 -.71414 .7 1 2.163)" stroke-width="2" d="M0-1h37"/><path transform="matrix(.7071 -.7071 .71414 .7 2 28.163)" stroke-width="2" d="M0-1h37"/></symbol><symbol id="icon-menu-open" viewBox="0 0 40 22"><path stroke-width="2" d="M0 1h40M0 11h40M0 21h40"/></symbol><symbol id="icon-zoom" viewBox="0 0 24 25"><path d="M21.153 16.859c3.797-3.795 3.797-9.968 0-13.762-3.797-3.795-9.975-3.795-13.772 0C4.16 6.315 3.67 11.103 5.916 14.84c0 0 .161.27-.057.488L.891 20.293c-.989.989-1.224 2.37-.347 3.247l.15.15c.878.877 2.26.642 3.25-.346L8.9 18.389c.229-.228.499-.067.499-.067 3.74 2.243 8.532 1.755 11.753-1.463zM9.179 15.062a7.195 7.195 0 010-10.169c2.805-2.803 7.37-2.803 10.176 0a7.195 7.195 0 010 10.169c-2.806 2.803-7.37 2.803-10.176 0z"/><path d="M9.8 9.4a1.004 1.004 0 01-.926-1.395c1.36-3.21 5.08-4.718 8.293-3.359a1.004 1.004 0 11-.783 1.85 4.323 4.323 0 00-5.658 2.292A1.006 1.006 0 019.8 9.4z"/></symbol> <view id="icon-arr-left-view-dark" viewBox="0 0 25 44"/><view id="icon-arr-left-view-white" viewBox="0 54 25 44"/><view id="icon-arr-right-view-dark" viewBox="0 108 25 44"/><view id="icon-arr-right-view-white" viewBox="0 162 25 44"/><view id="icon-menu-close-view-dark" viewBox="0 216 29 29"/><view id="icon-menu-close-view-white" viewBox="0 255 29 29"/><view id="icon-menu-open-view-dark" viewBox="0 294 40 22"/><view id="icon-menu-open-view-white" viewBox="0 326 40 22"/><view id="icon-zoom-view-dark" viewBox="0 358 24 25"/><view id="icon-zoom-view-white" viewBox="0 393 24 25"/> <use xlink:href="#icon-arr-left" x="0" y="0" width="25" height="44" style="fill:#0F3CA0"/><use xlink:href="#icon-arr-left" x="0" y="54" width="25" height="44" style="fill:#ffffff"/><use xlink:href="#icon-arr-right" x="0" y="108" width="25" height="44" style="fill:#0F3CA0"/><use xlink:href="#icon-arr-right" x="0" y="162" width="25" height="44" style="fill:#ffffff"/><use xlink:href="#icon-menu-close" x="0" y="216" width="29" height="29" style="fill:#0F3CA0"/><use xlink:href="#icon-menu-close" x="0" y="255" width="29" height="29" style="fill:#ffffff"/><use xlink:href="#icon-menu-open" x="0" y="294" width="40" height="22" style="fill:#0F3CA0"/><use xlink:href="#icon-menu-open" x="0" y="326" width="40" height="22" style="fill:#ffffff"/><use xlink:href="#icon-zoom" x="0" y="358" width="24" height="25" style="fill:#0F3CA0"/><use xlink:href="#icon-zoom" x="0" y="393" width="24" height="25" style="fill:#ffffff"/></svg>