<svg xmlns="http://www.w3.org/2000/svg" xmlns:xlink="http://www.w3.org/1999/xlink"><symbol id="icon-arrow-left" viewBox="0 0 14 24"><path d="M.94 10.94a1.5 1.5 0 000 2.12l9.545 9.547a1.5 1.5 0 102.122-2.122L4.12 12l8.486-8.485a1.5 1.5 0 10-2.122-2.122L.94 10.94zM3 10.5H2v3h1v-3z"/></symbol><symbol id="icon-arrow-right" viewBox="0 0 14 24"><path d="M13.06 13.06a1.5 1.5 0 000-2.12L3.516 1.392a1.5 1.5 0 10-2.122 2.122L9.88 12l-8.486 8.485a1.5 1.5 0 102.122 2.122l9.546-9.546zM11 13.5h1v-3h-1v3z"/></symbol><symbol id="icon-menu-close" viewBox="0 0 30 30"><path fill-rule="evenodd" stroke-width="3" d="M27.228 3.186L15.914 14.5l11.314 11.314-1.414 1.414L14.5 15.914 3.186 27.228l-1.414-1.414L13.086 14.5 1.772 3.186l1.414-1.414L14.5 13.086 25.814 1.772l1.414 1.414z"/></symbol><symbol id="icon-menu-open" viewBox="0 0 44 26"><path fill-rule="evenodd" stroke-width="3" d="M1 23v-2h40v2H1zm0-12h40v2H1v-2zM1 1h40v2H1V1z"/></symbol><symbol id="icon-zoom" viewBox="0 0 24 25"><path d="M21.153 16.859c3.797-3.795 3.797-9.968 0-13.762-3.797-3.795-9.975-3.795-13.772 0C4.16 6.315 3.67 11.103 5.916 14.84c0 0 .161.27-.057.488L.891 20.293c-.989.989-1.224 2.37-.347 3.247l.15.15c.878.877 2.26.642 3.25-.346L8.9 18.389c.229-.228.499-.067.499-.067 3.74 2.243 8.532 1.755 11.753-1.463zM9.179 15.062a7.195 7.195 0 010-10.169c2.805-2.803 7.37-2.803 10.176 0a7.195 7.195 0 010 10.169c-2.806 2.803-7.37 2.803-10.176 0z"/><path d="M9.8 9.4a1.004 1.004 0 01-.926-1.395c1.36-3.21 5.08-4.718 8.293-3.359a1.004 1.004 0 11-.783 1.85 4.323 4.323 0 00-5.658 2.292A1.006 1.006 0 019.8 9.4z"/></symbol> <view id="icon-arrow-left-view-dark" viewBox="0 0 14 24"/><view id="icon-arrow-left-view-white" viewBox="0 34 14 24"/><view id="icon-arrow-right-view-dark" viewBox="0 68 14 24"/><view id="icon-arrow-right-view-white" viewBox="0 102 14 24"/><view id="icon-menu-close-view-dark" viewBox="0 136 30 30"/><view id="icon-menu-close-view-white" viewBox="0 176 30 30"/><view id="icon-menu-open-view-dark" viewBox="0 216 44 26"/><view id="icon-menu-open-view-white" viewBox="0 252 44 26"/><view id="icon-zoom-view-dark" viewBox="0 288 24 25"/><view id="icon-zoom-view-white" viewBox="0 323 24 25"/> <use xlink:href="#icon-arrow-left" x="0" y="0" width="14" height="24" style="fill:#0F3CA0"/><use xlink:href="#icon-arrow-left" x="0" y="34" width="14" height="24" style="fill:#ffffff"/><use xlink:href="#icon-arrow-right" x="0" y="68" width="14" height="24" style="fill:#0F3CA0"/><use xlink:href="#icon-arrow-right" x="0" y="102" width="14" height="24" style="fill:#ffffff"/><use xlink:href="#icon-menu-close" x="0" y="136" width="30" height="30" style="fill:#0F3CA0"/><use xlink:href="#icon-menu-close" x="0" y="176" width="30" height="30" style="fill:#ffffff"/><use xlink:href="#icon-menu-open" x="0" y="216" width="44" height="26" style="fill:#0F3CA0"/><use xlink:href="#icon-menu-open" x="0" y="252" width="44" height="26" style="fill:#ffffff"/><use xlink:href="#icon-zoom" x="0" y="288" width="24" height="25" style="fill:#0F3CA0"/><use xlink:href="#icon-zoom" x="0" y="323" width="24" height="25" style="fill:#ffffff"/></svg>