<svg width="87" height="47" viewBox="0 0 87 47" fill="none" xmlns="http://www.w3.org/2000/svg">
<path d="M7 38.9983C24 38.9983 45 38.9983 59 32.5C66.5404 29 91 17 84 1" stroke="white" stroke-width="2" stroke-dasharray="5 5"/>
<path d="M0.291765 39.7054C-0.0981358 39.3149 -0.0971252 38.6817 0.294022 38.2912L6.66814 31.9272C7.05929 31.5367 7.69245 31.5367 8.08235 31.9272C8.47225 32.3178 8.47124 32.9509 8.0801 33.3414L2.41421 38.9983L8.06204 44.6551C8.45194 45.0457 8.45093 45.6788 8.05978 46.0693C7.66863 46.4599 7.03547 46.4599 6.64557 46.0693L0.291765 39.7054ZM8.9984 39.9983H0.998404L1.0016 37.9983H9.0016L8.9984 39.9983Z" fill="white"/>
</svg>
