<svg width="41" height="41" viewBox="0 0 41 41" fill="none" xmlns="http://www.w3.org/2000/svg">
<path d="M3.50001 2.78406C0.356673 6.04723 1.00001 9.51361 1.00001 20.0444C1.00001 28.7894 -0.526661 37.5562 7.46334 39.62C9.95834 40.2613 32.065 40.2613 34.5567 39.6167C37.8834 38.7588 40.59 36.062 40.96 31.3597C41.0117 30.7034 41.0117 9.39701 40.9584 8.72739C40.565 3.71854 37.48 0.831827 33.415 0.247155C32.4833 0.112231 32.2967 0.0722535 27.5167 0.0639248C10.5617 0.0722535 6.84501 -0.682322 3.50001 2.78406Z" fill="url(#paint0_linear)"/>
<path d="M20.9967 5.29061C14.945 5.29061 9.19832 4.75256 7.00332 10.3829C6.09665 12.7084 6.22832 15.7285 6.22832 20.0529C6.22832 23.8475 6.10665 27.414 7.00332 29.7211C9.19332 35.3548 14.9867 34.8151 20.9933 34.8151C26.7883 34.8151 32.7633 35.4181 34.985 29.7211C35.8933 27.3723 35.76 24.3972 35.76 20.0529C35.76 14.2859 36.0783 10.5628 33.28 7.76764C30.4467 4.9358 26.615 5.29061 20.99 5.29061H20.9967ZM19.6733 7.95088C32.2967 7.93089 33.9033 6.5283 33.0167 26.0131C32.7017 32.9044 27.4517 32.1482 20.9983 32.1482C9.23165 32.1482 8.89332 31.8117 8.89332 20.0462C8.89332 8.14411 9.82665 7.95754 19.6733 7.94755V7.95088ZM28.88 10.4013C27.9017 10.4013 27.1083 11.1942 27.1083 12.172C27.1083 13.1498 27.9017 13.9427 28.88 13.9427C29.8583 13.9427 30.6517 13.1498 30.6517 12.172C30.6517 11.1942 29.8583 10.4013 28.88 10.4013ZM20.9967 12.4718C16.8083 12.4718 13.4133 15.8667 13.4133 20.0529C13.4133 24.239 16.8083 27.6322 20.9967 27.6322C25.185 27.6322 28.5783 24.239 28.5783 20.0529C28.5783 15.8667 25.185 12.4718 20.9967 12.4718ZM20.9967 15.1321C27.505 15.1321 27.5133 24.9736 20.9967 24.9736C14.49 24.9736 14.48 15.1321 20.9967 15.1321Z" fill="white"/>
<defs>
<linearGradient id="paint0_linear" x1="3.57671" y1="37.488" x2="40.7346" y2="5.31024" gradientUnits="userSpaceOnUse">
<stop stop-color="#FFDD55"/>
<stop offset="0.5" stop-color="#FF543E"/>
<stop offset="1" stop-color="#C837AB"/>
</linearGradient>
</defs>
</svg>
