<svg width="40" height="40" viewBox="0 0 40 40" fill="none" xmlns="http://www.w3.org/2000/svg">
<path d="M0 19.1561C0 10.1259 0 5.6107 2.80689 2.80535C5.61378 0 10.1314 0 19.1667 0H20.8333C29.8686 0 34.3862 0 37.1931 2.80535C40 5.6107 40 10.1259 40 19.1561V20.8219C40 29.8522 40 34.3674 37.1931 37.1726C34.3862 39.978 29.8686 39.978 20.8333 39.978H19.1667C10.1314 39.978 5.61378 39.978 2.80689 37.1726C0 34.3674 0 29.8522 0 20.8219L0 19.1561Z" fill="#2787F5"/>
<path fill-rule="evenodd" clip-rule="evenodd" d="M10.8341 12.4932H7.91672C7.08319 12.4932 6.91647 12.8853 6.91647 13.3175C6.91647 14.0897 7.90552 17.9192 11.5216 22.984C13.9324 26.4429 17.3289 28.3179 20.4196 28.3179C22.2741 28.3179 22.5035 27.9014 22.5035 27.1842V24.5699C22.5035 23.737 22.6791 23.5708 23.2663 23.5708C23.6991 23.5708 24.4408 23.787 26.1716 25.4547C28.1497 27.4312 28.4758 28.3179 29.5884 28.3179H32.5057C33.3393 28.3179 33.7561 27.9014 33.5156 27.0796C33.2526 26.2606 32.3081 25.0721 31.055 23.6635C30.375 22.8605 29.3551 21.9958 29.046 21.5634C28.6133 21.0075 28.7369 20.7604 29.046 20.2663C29.046 20.2663 32.6003 15.2632 32.9712 13.5647C33.1566 12.947 32.9712 12.4932 32.089 12.4932H29.1716C28.4299 12.4932 28.0879 12.8853 27.9024 13.3175C27.9024 13.3175 26.4189 16.9309 24.3172 19.278C23.6372 19.9574 23.3281 20.1736 22.9572 20.1736C22.7718 20.1736 22.5034 19.9574 22.5034 19.3398V13.5647C22.5034 12.8235 22.2881 12.4932 21.6699 12.4932H17.0855C16.622 12.4932 16.3431 12.8371 16.3431 13.1632C16.3431 13.8658 17.394 14.0279 17.5023 16.0044V20.2972C17.5023 21.2384 17.3321 21.4091 16.9613 21.4091C15.9723 21.4091 13.5666 17.7795 12.1397 13.6265C11.8601 12.8192 11.5796 12.4932 10.8341 12.4932Z" fill="white"/>
</svg>
