<svg width="40" height="40" viewBox="0 0 40 40" fill="none" xmlns="http://www.w3.org/2000/svg">
<path d="M37.7921 7.06501e-08H2.20612C0.987549 0.000610087 -0.000305105 0.988531 7.0689e-08 2.20673V37.7731C0.000610422 38.991 0.989075 39.9783 2.20795 39.978H37.7921C39.0112 39.9783 39.9997 38.9907 40 37.7722C40 37.7719 40 37.7716 40 37.7713V2.2049C39.9994 0.987006 39.0109 -0.000304937 37.7921 7.06501e-08Z" fill="#4267B2"/>
<path d="M27.6172 39.979V24.5187H32.832L33.6133 18.4674H27.6172V14.6133C27.6172 12.8653 28.1027 11.6742 30.6107 11.6742H33.7891V6.27648C33.2361 6.20297 31.3388 6.03857 29.1312 6.03857C24.5218 6.03857 21.3672 8.84953 21.3672 14.0139V18.4674H16.1719V24.5187H21.3672V39.979H27.6172Z" fill="white"/>
</svg>
